<?xml version="1.0" encoding="utf-8"?>
<!-- Generator: Adobe Illustrator 18.0.0, SVG Export Plug-In . SVG Version: 6.00 Build 0)  -->
<!DOCTYPE svg PUBLIC "-//W3C//DTD SVG 1.1//EN" "http://www.w3.org/Graphics/SVG/1.1/DTD/svg11.dtd">
<svg version="1.1" xmlns="http://www.w3.org/2000/svg" xmlns:xlink="http://www.w3.org/1999/xlink" x="0px" y="0px"
	 viewBox="0 0 1900 1400" enable-background="new 0 0 1900 1400" xml:space="preserve">
<g id="Background">
	<rect fill="#2C2622" width="1900" height="1400"/>
</g>
<g id="Object">
	<rect x="65.1" y="185.2" fill="#FFFFFF" width="1767.7" height="1029.6"/>
	<path fill="#D6461F" d="M861.3,547.4c1.6,4.5,7.7,18.2,25.3,27.9c39.5-35.5,81.2-44.7,101.4-47c-12.5-2.8-25.6-4.4-39-4.4
		C917.1,523.9,887.1,532.5,861.3,547.4z"/>
	<path fill="#B13E15" d="M1642.1,678.4c-9.1,0-16.5,7.5-16.5,16.6c0,9.2,7.4,16.6,16.5,16.6c9.1,0,16.5-7.5,16.5-16.6
		C1658.6,685.9,1651.2,678.4,1642.1,678.4z"/>
	<polygon fill="#B13E15" points="1724.6,338 1724.6,340 1724.6,666.2 1741.8,679.7 1747.9,679.7 1747.9,622.8 1811.7,622.8 
		1811.7,767.3 1747.9,767.3 1747.9,710.3 1741.8,710.3 1724.6,723.9 1724.6,1050 1724.6,1052 1724.6,1169.3 1199.7,1169.3 
		1199.7,1209.9 1828,1209.9 1828,190.1 1199.7,190.1 1199.7,230.7 1724.6,230.7 	"/>
	<polygon fill="#6C1D00" points="1693.9,766.6 1693.9,748.1 1693.9,726.7 1693.9,663.3 1693.9,641.9 1693.9,623.4 1670.5,623.4 
		1670.5,766.6 	"/>
	<polygon fill="#B13E15" points="1697.8,723.6 1733.4,695 1697.8,666.5 	"/>
	<polygon fill="#6C1D00" points="1751.8,710.3 1751.8,763.3 1807.7,763.3 1807.7,626.7 1751.8,626.7 1751.8,679.7 1791.8,679.7 
		1791.8,710.3 	"/>
	<polygon fill="#6C1D00" points="1740.4,683.6 1697.8,650 1697.8,661.4 1739.7,695 1697.8,728.6 1697.8,740 1740.4,706.4 
		1747.9,706.4 1787.9,706.4 1787.9,683.6 1747.9,683.6 	"/>
	<path fill="#F7921E" d="M728.4,700c0,121,97.9,219.5,218.6,220.5V880c-98.3-1.1-178-81.4-178-180s79.7-178.9,178-180v-40.6
		C826.3,480.5,728.4,579,728.4,700z"/>
	<path fill="#D6461F" d="M857.4,614.3c-2.6,3.7-5.1,7.4-7.6,11.4c-5.2,8.4-9.6,16.8-13.5,25.1c26.3,9.8,37.3,41.7,48,72.6
		c4.4,12.8,8.6,25,13.7,34.9c9.9,19.3,45.8,84.4,91,113.1c44.2-10.3,82-37.3,106.5-74C1020.4,698.2,918,641.4,857.4,614.3z"/>
	<path fill="#D6461F" d="M859.7,611.1c60.9,27.3,162.9,84.1,238,182.9c17.2-27.2,27.3-59.4,27.3-94c0-12.2-1.3-24.1-3.6-35.6
		c-36.5-72.3-113.9-73.5-170.5-74.3c-9-0.1-17.5-0.3-25.3-0.7c-16.2-0.8-28.7-4.5-38.4-9.4C877.8,588.7,868.5,599,859.7,611.1z"/>
	<path fill="#D6461F" d="M951,586.1c54.1,0.8,127,1.9,166.8,64c-16.8-56.7-61.4-101.5-117.9-118.6c-5,0-58.8,0.9-109.6,45.8
		c9,4.3,20.6,7.5,35.5,8.2C933.5,585.9,942,586,951,586.1z"/>
	<rect x="691.7" y="1169.3" fill="#B13E15" width="504" height="40.6"/>
	<path fill="#D6461F" d="M772.9,700c0,44.4,16.5,85,43.7,116c-5.5-22.8-17.4-90.9,14.3-162.7c-32.7-9.2-52.7,13-55.4,16.2
		C773.9,679.3,772.9,689.6,772.9,700z"/>
	<path fill="#F7921E" d="M1169.6,700c0-121-97.9-219.5-218.6-220.5V520c98.3,1.1,178,81.4,178,180s-79.7,178.9-178,180v40.6
		C1071.7,919.5,1169.6,821,1169.6,700z"/>
	<path fill="#D6461F" d="M777,662.4c8.5-7.7,27.8-20.9,55.6-12.8c4-8.6,8.6-17.3,13.9-25.9c2.4-3.8,4.8-7.4,7.2-11
		c-24.2-10.6-41.2-16.3-46-17.8C793.1,614.6,782.4,637.5,777,662.4z"/>
	<path fill="#D6461F" d="M857.9,549.4c-18.3,11.1-34.4,25.5-47.5,42.3c6.3,2.1,22.8,7.8,45.7,17.9c8.8-12.2,18.1-22.7,27.6-31.5
		C866.8,568.1,860,554.8,857.9,549.4z"/>
	<path fill="#D6461F" d="M949,876.1c11.9,0,23.5-1.2,34.7-3.5c-44.5-30.2-79.3-93.4-89.1-112.5c-5.2-10.2-9.5-22.5-13.9-35.4
		c-10.4-30.1-21.1-61.2-45.9-70.3c-36.8,82.8-14.6,160.5-12.4,167.7C854.4,855.4,899.3,876.1,949,876.1z"/>
	<polygon fill="#B13E15" points="192.2,723.6 192.2,666.4 156.4,695 	"/>
	<path fill="#F7921E" d="M528.4,573.1v243.8c64.8-2.3,116.8-56.1,116.8-121.9C645.2,629.2,593.2,575.4,528.4,573.1z"/>
	<path fill="#B13E15" d="M177.2,656.8l15-11.8v-25.6h31.4v61.3c4.9-8.5,14.2-14.3,24.7-14.3c15.7,0,28.6,12.8,28.6,28.6
		c0,15.7-12.8,28.6-28.6,28.6c-10.6,0-19.8-5.8-24.7-14.3v61.3h-31.4V745l-15-11.8V817H493c-54-13.9-94.1-63.3-94.1-122
		c0-58.7,40-108.1,94.1-122H177.2V656.8z"/>
	<path fill="#FAA431" d="M290.2,340h-113v229.1h351.2v0.1c53.7,1.9,98.9,37.9,114.7,87.2C623.8,478.8,472.9,340,290.2,340z"/>
	<path fill="#B13E15" d="M248.4,711.6c9.2,0,16.6-7.5,16.6-16.6c0-9.2-7.5-16.6-16.6-16.6s-16.6,7.5-16.6,16.6
		C231.8,704.2,239.2,711.6,248.4,711.6z"/>
	<path fill="#6C1D00" d="M248.4,719.7c13.6,0,24.6-11.1,24.6-24.6s-11.1-24.6-24.6-24.6s-24.6,11.1-24.6,24.6
		S234.8,719.7,248.4,719.7z M248.4,674.5c11.3,0,20.5,9.2,20.5,20.5c0,11.3-9.2,20.5-20.5,20.5c-11.3,0-20.5-9.2-20.5-20.5
		C227.8,683.7,237,674.5,248.4,674.5z"/>
	<polygon fill="#B13E15" points="687.8,1169.3 173.3,1169.3 173.3,1054 173.3,1050 173.3,819 173.3,817 173.3,730.1 148,710.3 
		141.8,710.3 141.8,767.3 77.7,767.3 77.7,622.8 141.8,622.8 141.8,679.7 148,679.7 173.3,659.9 173.3,573 173.3,571.1 173.3,340 
		173.3,336.1 173.3,230.7 687.8,230.7 687.8,190.1 69.9,190.1 69.9,1209.9 687.8,1209.9 	"/>
	<polygon fill="#6C1D00" points="196.2,623.4 196.2,642 196.2,663.3 196.2,726.7 196.2,748.1 196.2,766.6 219.7,766.6 219.7,623.4 	
		"/>
	<path fill="#FDBA4D" d="M687.8,234.6H177.2v101.5h113c197.9,0,359,161,359,359s-161,359-359,359h-113v111.4h510.6v-26.8h3.9v26.8
		H947V924.5C824.1,923.4,724.4,823.1,724.4,700c0-123.1,99.7-223.4,222.6-224.5V234.6H691.7v26.8h-3.9V234.6z"/>
	<path fill="#FDBA4D" d="M1195.7,234.6H950.9v240.9c122.9,1.1,222.5,101.3,222.5,224.5c0,123.1-99.7,223.4-222.5,224.5v240.9h244.8
		v-26.8h3.9v26.8h521V1054h-113c-197.9,0-359-161-359-359s161-359,359-359h113V234.6h-521v26.8h-3.9V234.6z"/>
	<rect x="691.7" y="190.1" fill="#B13E15" width="504" height="40.6"/>
	<path fill="#B13E15" d="M524.5,817V573c-0.1,0-0.3,0-0.4,0c-66.8,0-121.2,54.7-121.2,122c0,67.2,54.3,122,121.1,122h0.2
		C524.3,817,524.4,817,524.5,817z"/>
	<path fill="#6C1D00" d="M1642.1,670.4c-13.5,0-24.5,11.1-24.5,24.6s11,24.6,24.5,24.6c13.5,0,24.5-11.1,24.5-24.6
		S1655.6,670.4,1642.1,670.4z M1642.1,715.6c-11.3,0-20.4-9.2-20.4-20.5c0-11.3,9.2-20.5,20.4-20.5c11.3,0,20.4,9.2,20.4,20.5
		C1662.5,706.3,1653.3,715.6,1642.1,715.6z"/>
	<path fill="#FAA431" d="M177.2,1050h113c182.7,0,333.6-138.8,352.9-316.4c-15.8,49.3-61,85.4-114.7,87.2v0.1h-4.3c0,0,0,0-0.1,0
		c0,0,0,0-0.1,0H177.2V1050z"/>
	<polygon fill="#6C1D00" points="149.4,706.4 192.2,740 192.2,728.6 150.2,695 192.2,661.4 192.2,650 149.4,683.6 141.8,683.6 
		101.6,683.6 101.6,706.4 141.8,706.4 	"/>
	<polygon fill="#F7921E" points="137.9,679.7 137.9,626.7 81.6,626.7 81.6,763.3 137.9,763.3 137.9,710.3 97.7,710.3 97.7,679.7 	
		"/>
	<g>
		<path fill="#FAA431" d="M1371.9,573c-65.9,1.1-119.2,55.4-119.2,122c0,66.6,53.3,120.9,119.2,122V573z"/>
		<path fill="#B13E15" d="M1375.9,573v244c65.9-1.1,119.2-55.4,119.2-122C1495.1,628.4,1441.9,574.1,1375.9,573z"/>
	</g>
	<path fill="#FAA431" d="M1720.7,340h-113c-182.7,0-333.6,138.8-352.9,316.4c16.2-50.6,63.5-87.4,119.1-87.4c3.3,0,6.5,0.1,9.7,0.4
		h337.1V340z"/>
	<path fill="#FAA431" d="M1373.9,820.9c-55.6,0-102.9-36.7-119.1-87.4c19.3,177.7,170.2,316.4,352.9,316.4h113V820.5h-336.5
		C1380.8,820.8,1377.4,820.9,1373.9,820.9z"/>
	<path fill="#B13E15" d="M1720.7,663.1v-90.5H1403c55,13.2,96.1,63.1,96.1,122.5c0,59.3-40.9,109.1-95.9,122.4h317.5V727l-22.8,18
		v25.6h-31.2v-61.2c-4.9,8.5-14.1,14.3-24.5,14.3c-15.7,0-28.4-12.8-28.4-28.6c0-15.7,12.7-28.6,28.4-28.6
		c10.5,0,19.6,5.7,24.5,14.3v-61.2h31.2V645L1720.7,663.1z"/>
	<g>
		<rect x="1326" y="256.6" fill="#FAA431" width="173" height="28"/>
		<rect x="1148" y="290.6" fill="#FAA431" width="173" height="28"/>
		<rect x="1510" y="293.6" fill="#FAA431" width="173" height="28"/>
		<rect x="970" y="350.6" fill="#FAA431" width="173" height="28"/>
		<rect x="1109" y="493.6" fill="#FAA431" width="173" height="28"/>
		<rect x="962" y="252.6" fill="#FAA431" width="117" height="28"/>
		<rect x="1263" y="375.6" fill="#FAA431" width="117" height="28"/>
		<rect x="1056" y="424.3" fill="#FAA431" width="117" height="28"/>
	</g>
	<g>
		<rect x="1326" y="1116.6" fill="#FAA431" width="173" height="28"/>
		<rect x="1148" y="1082.6" fill="#FAA431" width="173" height="28"/>
		<rect x="1510" y="1079.6" fill="#FAA431" width="173" height="28"/>
		<rect x="970" y="1022.6" fill="#FAA431" width="173" height="28"/>
		<rect x="1109" y="879.6" fill="#FAA431" width="173" height="28"/>
		<rect x="962" y="1120.6" fill="#FAA431" width="117" height="28"/>
		<rect x="1263" y="997.6" fill="#FAA431" width="117" height="28"/>
		<rect x="1056" y="948.9" fill="#FAA431" width="117" height="28"/>
	</g>
	<g>
		<rect x="400.1" y="1116.6" fill="#FAA431" width="173" height="28"/>
		<rect x="578.1" y="1082.6" fill="#FAA431" width="173" height="28"/>
		<rect x="216.1" y="1079.6" fill="#FAA431" width="173" height="28"/>
		<rect x="756.1" y="1022.6" fill="#FAA431" width="173" height="28"/>
		<rect x="617.1" y="879.6" fill="#FAA431" width="173" height="28"/>
		<rect x="820.1" y="1120.6" fill="#FAA431" width="117" height="28"/>
		<rect x="519.1" y="997.6" fill="#FAA431" width="117" height="28"/>
		<rect x="726.1" y="948.9" fill="#FAA431" width="117" height="28"/>
	</g>
	<g>
		<rect x="400.1" y="256.6" fill="#FAA431" width="173" height="28"/>
		<rect x="578.1" y="290.6" fill="#FAA431" width="173" height="28"/>
		<rect x="216.1" y="293.6" fill="#FAA431" width="173" height="28"/>
		<rect x="756.1" y="350.6" fill="#FAA431" width="173" height="28"/>
		<rect x="617.1" y="493.6" fill="#FAA431" width="173" height="28"/>
		<rect x="820.1" y="252.6" fill="#FAA431" width="117" height="28"/>
		<rect x="519.1" y="375.6" fill="#FAA431" width="117" height="28"/>
		<rect x="726.1" y="424.3" fill="#FAA431" width="117" height="28"/>
	</g>
	<rect x="1365" y="448.6" fill="#FDBA4D" width="173" height="28"/>
	<rect x="1497" y="916.6" fill="#FDBA4D" width="173" height="28"/>
	<rect x="217" y="910.6" fill="#FDBA4D" width="173" height="28"/>
	<rect x="217" y="464.6" fill="#FDBA4D" width="173" height="28"/>
	<rect x="251" y="390.6" fill="#FDBA4D" width="173" height="28"/>
	<rect x="1504" y="373.6" fill="#FDBA4D" width="117" height="28"/>
	<rect x="1565" y="507.6" fill="#FDBA4D" width="117" height="28"/>
	<rect x="1355" y="865.6" fill="#FDBA4D" width="117" height="28"/>
	<rect x="1467.5" y="976.6" fill="#FDBA4D" width="117" height="28"/>
	<rect x="409.5" y="852.6" fill="#FDBA4D" width="117" height="28"/>
	<rect x="319.5" y="978.6" fill="#FDBA4D" width="117" height="28"/>
	<rect x="393.5" y="518.6" fill="#FDBA4D" width="117" height="28"/>
	<polygon opacity="0.1" fill="#FFFFFF" points="1832.8,185.2 1435.5,1214.8 1195.7,1214.8 1617.3,185.2 	"/>
	<polygon opacity="0.1" fill="#FFFFFF" points="1534.8,185.2 1137.6,1214.8 1057.4,1214.8 1479,185.2 	"/>
	<polygon opacity="0.1" fill="#FFFFFF" points="708.6,185.2 311.3,1214.8 71.5,1214.8 493.1,185.2 	"/>
	<polygon fill="#251F1B" points="200.4,22.4 122.5,168.4 75.4,168.4 158.2,22.4 	"/>
	<polygon fill="#251F1B" points="335.5,22.4 257.6,168.4 210.5,168.4 293.2,22.4 	"/>
	<polygon fill="#251F1B" points="470.6,22.4 392.7,168.4 345.6,168.4 428.3,22.4 	"/>
	<polygon fill="#251F1B" points="605.7,22.4 527.7,168.4 480.7,168.4 563.4,22.4 	"/>
	<polygon fill="#251F1B" points="740.8,22.4 662.8,168.4 615.8,168.4 698.5,22.4 	"/>
	<polygon fill="#251F1B" points="1296.4,22.4 1218.4,168.4 1171.3,168.4 1254.1,22.4 	"/>
	<polygon fill="#251F1B" points="1431.5,22.4 1353.5,168.4 1306.4,168.4 1389.2,22.4 	"/>
	<polygon fill="#251F1B" points="1566.6,22.4 1488.6,168.4 1441.5,168.4 1524.3,22.4 	"/>
	<polygon fill="#251F1B" points="1701.7,22.4 1623.7,168.4 1576.6,168.4 1659.4,22.4 	"/>
	<polygon fill="#251F1B" points="1836.7,22.4 1758.8,168.4 1711.7,168.4 1794.5,22.4 	"/>
	<polygon fill="#251F1B" points="200.4,1234.3 122.5,1380.3 75.4,1380.3 158.2,1234.3 	"/>
	<polygon fill="#251F1B" points="335.5,1234.3 257.6,1380.3 210.5,1380.3 293.2,1234.3 	"/>
	<polygon fill="#251F1B" points="470.6,1234.3 392.7,1380.3 345.6,1380.3 428.3,1234.3 	"/>
	<polygon fill="#251F1B" points="605.7,1234.3 527.7,1380.3 480.7,1380.3 563.4,1234.3 	"/>
	<polygon fill="#251F1B" points="740.8,1234.3 662.8,1380.3 615.8,1380.3 698.5,1234.3 	"/>
	<polygon fill="#251F1B" points="1296.4,1234.3 1218.4,1380.3 1171.3,1380.3 1254.1,1234.3 	"/>
	<polygon fill="#251F1B" points="1431.5,1234.3 1353.5,1380.3 1306.4,1380.3 1389.2,1234.3 	"/>
	<polygon fill="#251F1B" points="1566.6,1234.3 1488.6,1380.3 1441.5,1380.3 1524.3,1234.3 	"/>
	<polygon fill="#251F1B" points="1701.7,1234.3 1623.7,1380.3 1576.6,1380.3 1659.4,1234.3 	"/>
	<polygon fill="#251F1B" points="1836.7,1234.3 1758.8,1380.3 1711.7,1380.3 1794.5,1234.3 	"/>
</g>
</svg>
